# xmcd CD database file
#
# Track frame offsets:
#	150
#	14609
#	30668
#	47356
#	75228
#	114513
#	145546
#	170195
#	190691
#
# Disc length: 2758 seconds
#
# Revision: 0
# Processed by: cddbd v1.5.2PL0 Copyright (c) Steve Scherf et al.
# Submitted via: CDex 1.51
#
DISCID=660ac409
DTITLE=Terni In Jazz Orchestra - Terni In Jazz Orchestra
DYEAR=2006
DGENRE=Jazz
TTITLE0=J.O.S.
TTITLE1=Lew's Piece
TTITLE2=Pocket Rocket
TTITLE3=New Island
TTITLE4=Katamarano
TTITLE5=Nel Blu Dipinto Di Blu
TTITLE6=Yesterday
TTITLE7=Star Trek Theme
TTITLE8=Slow Down Mr. Brown
EXTD=YEAR: 2006
EXTT0=
EXTT1=
EXTT2=
EXTT3=
EXTT4=
EXTT5=
EXTT6=
EXTT7=
EXTT8=
PLAYORDER=
